# xmcd CD database file
#
# Track frame offsets:
#	150
#	18075
#	35026
#	51076
#	68702
#	87072
#	104247
#	120673
#	137522
#	153948
#	172549
#
# Disc length: 2748 seconds
#
# Revision: 0
# Processed by: cddbd v1.5.1PL0 Copyright (c) Steve Scherf et al.
# Submitted via: CDex 1.51
#
DISCID=820aba0b
DTITLE=Alfi Nipic - Vem, da tiho spis
DYEAR=2005
DGENRE=Country
TTITLE0=Vem, da tiho spis
TTITLE1=Nocoj sem sanjal
TTITLE2=Moje dekle
TTITLE3=Nisem kriv
TTITLE4=Alfi mix 1
TTITLE5=Srecna presrecna
TTITLE6=Le prijatelji
TTITLE7=Hula hula
TTITLE8=Viva la musica
TTITLE9=Alfi mix 2
TTITLE10=Bonus
EXTD=YEAR: 2005
EXTT0=
EXTT1=
EXTT2=
EXTT3=
EXTT4=
EXTT5=
EXTT6=
EXTT7=
EXTT8=
EXTT9=
EXTT10=
PLAYORDER=
